<?xml version="1.0" encoding="utf-8"?>
<!-- Generator: Adobe Illustrator 22.0.0, SVG Export Plug-In . SVG Version: 6.00 Build 0)  -->
<svg version="1.1" id="Layer_1" xmlns="http://www.w3.org/2000/svg" xmlns:xlink="http://www.w3.org/1999/xlink" x="0px" y="0px"
	 viewBox="0 0 612 792" style="enable-background:new 0 0 612 792;" xml:space="preserve">
<style type="text/css">
	.st0{fill:#4E5169;}
	.st1{fill:url(#SVGID_1_);}
</style>
<path class="st0" d="M384,497.3H230.3c-11.7,0-21.2-9.5-21.2-21.2V322.5c0-11.7,9.5-21.2,21.2-21.2H384c11.7,0,21.2,9.5,21.2,21.2
	v153.7C405.2,487.8,395.7,497.3,384,497.3z"/>
<linearGradient id="SVGID_1_" gradientUnits="userSpaceOnUse" x1="377.7085" y1="342.1227" x2="222.1423" y2="451.0513">
	<stop  offset="0" style="stop-color:#CBFA14"/>
	<stop  offset="1" style="stop-color:#09D7CB"/>
</linearGradient>
<path class="st1" d="M382.8,409c-1.9-3.1-4.3-5.7-7.1-7.8c-2.6-1.9-2.7-6.4-0.2-8.6c2.1-2,4-4.3,5.5-6.9c3.1-5.3,4.6-11.5,4.6-18.8
	c0-11.3-3.1-20-9.3-26.1c-6.2-6.2-15-9.2-26.3-9.2h-37.4h-0.1h-7.4v98c0,13.3-14.2,18.6-20.4,7.6l-6-10.8c-4.4-7.9-14.1-7.9-18.5,0
	l-6,10.8c-6.1,11-20.4,5.8-20.4-7.6v-98h-7.5v119.6c0,15.6,17.2,21.8,24.7,8.9l7.3-12.7c5.3-9.3,17-9.3,22.4,0l7.3,12.7
	c4.7,8.3,13.5,8.7,19.2,3.9c0.2,0.3,0.4,0.7,0.7,1c1.2,1.4,2.8,2.1,4.7,2.1h39.2c11.6,0,20.6-3.2,26.9-9.5
	c6.3-6.3,9.5-15.5,9.5-27.4C388,421.7,386.3,414.7,382.8,409z M318.6,349.8c0-2.8,1.9-5.1,4.2-5.1h25.4c16.6,0,24.9,7.7,24.9,23.1
	c0,7.8-2.1,13.8-6.3,17.9c-4.2,4.1-10.4,6.2-18.6,6.2h-25.4c-2.3,0-4.2-2.3-4.2-5.1V349.8z M369.5,448.1c-4.1,3.9-10.4,5.9-19,5.9
	h-27.7c-2.3,0-4.2-2.3-4.2-5.1v-38.9c0-2.8,1.9-5.1,4.2-5.1h27.7c16.8,0,25.2,8.3,25.2,25C375.6,438.1,373.6,444.2,369.5,448.1z"/>
</svg>
