<?xml version="1.0" encoding="utf-8"?>
<!-- Generator: Adobe Illustrator 22.0.0, SVG Export Plug-In . SVG Version: 6.00 Build 0)  -->
<svg version="1.1" id="Layer_1" xmlns="http://www.w3.org/2000/svg" xmlns:xlink="http://www.w3.org/1999/xlink" x="0px" y="0px"
	 viewBox="0 0 40 51" style="enable-background:new 0 0 40 51;" xml:space="preserve">
<style type="text/css">
	.st0{fill:url(#SVGID_1_);}
</style>
<linearGradient id="SVGID_1_" gradientUnits="userSpaceOnUse" x1="38.6355" y1="41.753" x2="-1.8671" y2="13.3927" gradientTransform="matrix(1 0 0 -1 0 52)">
	<stop  offset="0" style="stop-color:#CBFA14"/>
	<stop  offset="1" style="stop-color:#09D7CB"/>
</linearGradient>
<path class="st0" d="M38.7,28c-0.5-0.9-1-1.7-1.7-2.3c-0.6-0.5-0.6-1.9-0.1-2.5c0.5-0.6,1-1.3,1.3-2c0.7-1.5,1.1-3.4,1.1-5.5
	c0-3.3-0.8-5.8-2.3-7.6s-3.6-2.7-6.4-2.7h-9.1l0,0h-1.8v28.5c0,3.9-3.5,5.4-5,2.2L13.2,33c-1.1-2.3-3.4-2.3-4.5,0l-1.3,3.2
	c-1.5,3.2-5,1.7-5-2.2V5.4H0.6v34.8c0,4.6,4.2,6.3,6,2.6l1.8-3.7c1.3-2.7,4.1-2.7,5.4,0l1.8,3.7c1.2,2.4,3.3,2.5,4.7,1.2
	c0,0.1,0.1,0.2,0.2,0.3c0.3,0.4,0.7,0.6,1.2,0.6h9.5c2.8,0,5-0.9,6.5-2.8s2.3-4.5,2.3-8C40,31.7,39.5,29.6,38.7,28z M23.1,10.7
	c0-0.8,0.5-1.5,1-1.5h6.2c4,0,6,2.3,6,6.7c0,2.3-0.5,4-1.5,5.2c-1,1.2-2.5,1.8-4.5,1.8h-6.2c-0.6,0-1-0.7-1-1.5V10.7z M35.5,39.4
	c-1,1.2-2.5,1.7-4.6,1.7h-6.7c-0.6,0-1-0.7-1-1.5V28.2c0-0.8,0.5-1.5,1-1.5h6.7c4.1,0,6.1,2.4,6.1,7.3
	C36.9,36.4,36.4,38.2,35.5,39.4z"/>
</svg>
